<?xml version="1.0" encoding="UTF-8"?>
<svg id="_圖層_2" data-name="圖層 2" xmlns="http://www.w3.org/2000/svg" viewBox="0 0 134.67 91.11">
  <g id="_圖層_1-2" data-name="圖層 1">
    <g>
      <g>
        <path d="M17.22,84.18h-2.52l-5.96-17.13h3.54l3.83,11.66,4.19-11.81h1.85l3.96,11.81,4.11-11.66h3.54l-6.34,17.13h-2.52l-3.75-10.86-3.93,10.86Z"/>
        <path d="M55.1,80.59h-6.91l-1.52,3.6h-3.62l7.37-17.13h2.62l7.17,17.13h-3.6l-1.51-3.6ZM54.12,77.86l-2.44-6.16-2.44,6.16h4.88Z"/>
        <path d="M72.48,84.18v-17.13h2.31l10.43,11.43v-11.43h3.34v17.13h-2.31l-10.43-11.45v11.45h-3.34Z"/>
        <path d="M111.41,75.01h7.86v.21c0,1.16-.15,4.75-2.52,7.09-1.77,1.77-3.95,2.26-6.09,2.26s-4.34-.44-6.21-2.31c-.59-.59-2.54-2.75-2.54-6.6,0-3.31,1.49-5.34,2.52-6.37,1.28-1.31,3.44-2.62,6.75-2.62,1.28,0,2.65.21,3.96.9,1.1.56,2.31,1.59,3.21,3.13l-2.9,1.57c-.59-1.16-1.46-1.75-2-2.03-.72-.36-1.62-.54-2.41-.54-1.36,0-2.9.49-3.96,1.51-.98.95-1.72,2.59-1.72,4.52,0,2.29.98,3.65,1.69,4.34.77.75,1.98,1.46,3.8,1.46,1.13,0,2.41-.31,3.36-1.03.67-.51,1.33-1.39,1.62-2.62h-4.42v-2.88Z"/>
      </g>
      <path d="M127.35,57.24l-.55,4.44h-1.24l.55-4.44h-1.2l.13-1.11h3.64l-.13,1.11h-1.2ZM128.19,61.68l1.69-5.55h.91l.93,3.27,1.85-3.27h.91l.19,5.55h-1.24l-.04-3.05-1.66,3.05h-.55l-.88-3.05-.86,3.05h-1.24Z"/>
      <path d="M64.04,40.5C28.68,40.5,0,44.78,0,50.05s28.68,9.56,64.04,9.56,64.05-4.28,64.05-9.56-28.68-9.55-64.05-9.55ZM64.04,53.04c-7.55,0-13.68-1.34-13.68-2.99s6.12-2.98,13.68-2.98,13.69,1.34,13.69,2.98-6.12,2.99-13.69,2.99Z"/>
      <g>
        <g>
          <path d="M25.05,16.67l10.53,17.43h-9.92l-3.12-5.11c-.97-1.64-2.04-3.73-3.17-6.44-1.12,1.94-2.15,3.42-3.32,4.91l-5.32,6.65H0l14.88-17.94L5.11,0h10.02l2.25,3.99c1.43,2.56,1.99,3.73,3.12,6.29,1.74-2.71,2.45-3.78,3.42-4.96L28.06,0h10.43l-13.44,16.67Z"/>
          <path d="M46.52,11.25l-2.81,22.85h-8.43l2.81-22.85h8.43Z"/>
          <path d="M96.57,0l-14.67,34.1h-9.71l-2.3-13.6c-.51-2.91-.72-5.11-.77-8.84-1.12,3.83-1.53,5.01-2.81,8.13l-5.83,14.31h-9.25L45.14,0h8.69l2.15,12.78c.72,4.14.92,5.98,1.23,11.2.82-3.02,1.12-3.88,1.43-4.7l1.33-3.27L66.41,0h8.18l2.5,14.67c.41,2.1.67,5.01.97,9.3.77-2.61,1.12-3.73,1.69-5.06l1.02-2.56L87.21,0h9.35Z"/>
          <path d="M97.94,24.38c0,.82,0,2.81,1.18,3.89.41.41,1.23.87,2.61.87.72,0,1.48-.15,2.15-.61.66-.46.97-1.02,1.12-1.53h9.2c-.56,1.69-1.48,3.12-2.5,4.14-2.91,3.02-7.21,3.63-9.92,3.63-4.8,0-7.46-1.84-8.74-3.02-1.48-1.43-3.12-3.99-3.12-8.08,0-4.4,1.79-7.57,3.73-9.46,1.99-1.94,5.11-3.63,9.76-3.63,4.29,0,7,1.53,8.64,3.17,2.35,2.35,3.07,5.72,3.07,8.69,0,.67-.05,1.33-.1,1.94h-17.07ZM106.48,19.63c-.05-1.07-.51-2.1-1.18-2.71-.61-.56-1.53-.92-2.66-.92s-2.25.46-2.91,1.12c-.67.66-1.07,1.69-1.23,2.5h7.97Z"/>
          <path d="M126.92,11.25l-2.81,22.85h-8.43l2.81-22.85h8.43Z"/>
        </g>
        <polygon points="127.42 7.16 86.91 7.16 87.79 0 128.3 0 127.42 7.16"/>
        <polygon points="50.36 7.16 38.49 7.16 39.38 0 51.25 0 50.36 7.16"/>
      </g>
    </g>
  </g>
</svg>